<?xml version="1.0" encoding="utf-8"?>
<svg xmlns="http://www.w3.org/2000/svg" xmlns:xlink="http://www.w3.org/1999/xlink" style="margin: auto; background: rgb(222, 243, 255); display: block; z-index: 1; position: relative; shape-rendering: auto;" width="1702" height="754" preserveAspectRatio="xMidYMid" viewBox="0 0 1702 754">
<g transform="translate(851,377) scale(1,1) translate(-851,-377)"><g transform="translate(-100 624.805425312104) rotate(0)">
  <animateTransform attributeName="transform" type="translate" keyTimes="0;1" values="-100 624.805425312104;1702 624.805425312104" dur="200s" repeatCount="indefinite" begin="-75.47763929777945s"></animateTransform>
  <path d="M84.717,33.597c0.791-2.503,1.186-5.138,1.186-7.773C85.903,11.594,74.308,0,60.079,0 c-9.881,0-18.445,5.534-22.793,13.702c-1.581-0.527-3.426-0.791-5.138-0.791c-9.486,0-17.128,7.642-17.128,17.128 c0,1.186,0.132,2.372,0.395,3.426C6.719,34.783,0,42.424,0,51.515C0,61.66,8.169,69.829,18.314,69.829h63.373 C91.831,69.829,100,61.66,100,51.515C99.868,42.556,93.281,35.046,84.717,33.597z" fill="#b1daeb" transform="scale(0.4075)"></path>
</g><g transform="translate(-100 201.3556612491134) rotate(0)">
  <animateTransform attributeName="transform" type="translate" keyTimes="0;1" values="-100 201.3556612491134;1702 201.3556612491134" dur="200s" repeatCount="indefinite" begin="-74.74482398574067s"></animateTransform>
  <path d="M84.717,33.597c0.791-2.503,1.186-5.138,1.186-7.773C85.903,11.594,74.308,0,60.079,0 c-9.881,0-18.445,5.534-22.793,13.702c-1.581-0.527-3.426-0.791-5.138-0.791c-9.486,0-17.128,7.642-17.128,17.128 c0,1.186,0.132,2.372,0.395,3.426C6.719,34.783,0,42.424,0,51.515C0,61.66,8.169,69.829,18.314,69.829h63.373 C91.831,69.829,100,61.66,100,51.515C99.868,42.556,93.281,35.046,84.717,33.597z" fill="#b1daeb" transform="scale(0.4075)"></path>
</g><g transform="translate(-100 0.8476664047744551) rotate(0)">
  <animateTransform attributeName="transform" type="translate" keyTimes="0;1" values="-100 0.8476664047744551;1702 0.8476664047744551" dur="200s" repeatCount="indefinite" begin="-148.94694255751014s"></animateTransform>
  <path d="M84.717,33.597c0.791-2.503,1.186-5.138,1.186-7.773C85.903,11.594,74.308,0,60.079,0 c-9.881,0-18.445,5.534-22.793,13.702c-1.581-0.527-3.426-0.791-5.138-0.791c-9.486,0-17.128,7.642-17.128,17.128 c0,1.186,0.132,2.372,0.395,3.426C6.719,34.783,0,42.424,0,51.515C0,61.66,8.169,69.829,18.314,69.829h63.373 C91.831,69.829,100,61.66,100,51.515C99.868,42.556,93.281,35.046,84.717,33.597z" fill="#b1daeb" transform="scale(0.4075)"></path>
</g><g transform="translate(-100 152.96049824232742) rotate(0)">
  <animateTransform attributeName="transform" type="translate" keyTimes="0;1" values="-100 152.96049824232742;1702 152.96049824232742" dur="200s" repeatCount="indefinite" begin="-53.61187668011169s"></animateTransform>
  <path d="M84.717,33.597c0.791-2.503,1.186-5.138,1.186-7.773C85.903,11.594,74.308,0,60.079,0 c-9.881,0-18.445,5.534-22.793,13.702c-1.581-0.527-3.426-0.791-5.138-0.791c-9.486,0-17.128,7.642-17.128,17.128 c0,1.186,0.132,2.372,0.395,3.426C6.719,34.783,0,42.424,0,51.515C0,61.66,8.169,69.829,18.314,69.829h63.373 C91.831,69.829,100,61.66,100,51.515C99.868,42.556,93.281,35.046,84.717,33.597z" fill="#b1daeb" transform="scale(0.4075)"></path>
</g><g transform="translate(-100 24.176628925480287) rotate(0)">
  <animateTransform attributeName="transform" type="translate" keyTimes="0;1" values="-100 24.176628925480287;1702 24.176628925480287" dur="200s" repeatCount="indefinite" begin="-169.94718409037097s"></animateTransform>
  <path d="M84.717,33.597c0.791-2.503,1.186-5.138,1.186-7.773C85.903,11.594,74.308,0,60.079,0 c-9.881,0-18.445,5.534-22.793,13.702c-1.581-0.527-3.426-0.791-5.138-0.791c-9.486,0-17.128,7.642-17.128,17.128 c0,1.186,0.132,2.372,0.395,3.426C6.719,34.783,0,42.424,0,51.515C0,61.66,8.169,69.829,18.314,69.829h63.373 C91.831,69.829,100,61.66,100,51.515C99.868,42.556,93.281,35.046,84.717,33.597z" fill="#b1daeb" transform="scale(0.4075)"></path>
</g><g transform="translate(-100 185.31862502988477) rotate(0)">
  <animateTransform attributeName="transform" type="translate" keyTimes="0;1" values="-100 185.31862502988477;1702 185.31862502988477" dur="100s" repeatCount="indefinite" begin="-135.91248621750967s"></animateTransform>
  <path d="M84.717,33.597c0.791-2.503,1.186-5.138,1.186-7.773C85.903,11.594,74.308,0,60.079,0 c-9.881,0-18.445,5.534-22.793,13.702c-1.581-0.527-3.426-0.791-5.138-0.791c-9.486,0-17.128,7.642-17.128,17.128 c0,1.186,0.132,2.372,0.395,3.426C6.719,34.783,0,42.424,0,51.515C0,61.66,8.169,69.829,18.314,69.829h63.373 C91.831,69.829,100,61.66,100,51.515C99.868,42.556,93.281,35.046,84.717,33.597z" fill="#ffffff" transform="scale(0.605)"></path>
</g><g transform="translate(-100 101.57349696743276) rotate(0)">
  <animateTransform attributeName="transform" type="translate" keyTimes="0;1" values="-100 101.57349696743276;1702 101.57349696743276" dur="100s" repeatCount="indefinite" begin="-103.22427701064703s"></animateTransform>
  <path d="M84.717,33.597c0.791-2.503,1.186-5.138,1.186-7.773C85.903,11.594,74.308,0,60.079,0 c-9.881,0-18.445,5.534-22.793,13.702c-1.581-0.527-3.426-0.791-5.138-0.791c-9.486,0-17.128,7.642-17.128,17.128 c0,1.186,0.132,2.372,0.395,3.426C6.719,34.783,0,42.424,0,51.515C0,61.66,8.169,69.829,18.314,69.829h63.373 C91.831,69.829,100,61.66,100,51.515C99.868,42.556,93.281,35.046,84.717,33.597z" fill="#ffffff" transform="scale(0.605)"></path>
</g><g transform="translate(-100 382.6765464892695) rotate(0)">
  <animateTransform attributeName="transform" type="translate" keyTimes="0;1" values="-100 382.6765464892695;1702 382.6765464892695" dur="100s" repeatCount="indefinite" begin="-12.123753775200186s"></animateTransform>
  <path d="M84.717,33.597c0.791-2.503,1.186-5.138,1.186-7.773C85.903,11.594,74.308,0,60.079,0 c-9.881,0-18.445,5.534-22.793,13.702c-1.581-0.527-3.426-0.791-5.138-0.791c-9.486,0-17.128,7.642-17.128,17.128 c0,1.186,0.132,2.372,0.395,3.426C6.719,34.783,0,42.424,0,51.515C0,61.66,8.169,69.829,18.314,69.829h63.373 C91.831,69.829,100,61.66,100,51.515C99.868,42.556,93.281,35.046,84.717,33.597z" fill="#ffffff" transform="scale(0.605)"></path>
</g><g transform="translate(-100 437.10563919698865) rotate(0)">
  <animateTransform attributeName="transform" type="translate" keyTimes="0;1" values="-100 437.10563919698865;1702 437.10563919698865" dur="100s" repeatCount="indefinite" begin="-153.4710048475715s"></animateTransform>
  <path d="M84.717,33.597c0.791-2.503,1.186-5.138,1.186-7.773C85.903,11.594,74.308,0,60.079,0 c-9.881,0-18.445,5.534-22.793,13.702c-1.581-0.527-3.426-0.791-5.138-0.791c-9.486,0-17.128,7.642-17.128,17.128 c0,1.186,0.132,2.372,0.395,3.426C6.719,34.783,0,42.424,0,51.515C0,61.66,8.169,69.829,18.314,69.829h63.373 C91.831,69.829,100,61.66,100,51.515C99.868,42.556,93.281,35.046,84.717,33.597z" fill="#ffffff" transform="scale(0.605)"></path>
</g><g transform="translate(-100 697.0101078144733) rotate(0)">
  <animateTransform attributeName="transform" type="translate" keyTimes="0;1" values="-100 697.0101078144733;1702 697.0101078144733" dur="100s" repeatCount="indefinite" begin="-198.1051262258289s"></animateTransform>
  <path d="M84.717,33.597c0.791-2.503,1.186-5.138,1.186-7.773C85.903,11.594,74.308,0,60.079,0 c-9.881,0-18.445,5.534-22.793,13.702c-1.581-0.527-3.426-0.791-5.138-0.791c-9.486,0-17.128,7.642-17.128,17.128 c0,1.186,0.132,2.372,0.395,3.426C6.719,34.783,0,42.424,0,51.515C0,61.66,8.169,69.829,18.314,69.829h63.373 C91.831,69.829,100,61.66,100,51.515C99.868,42.556,93.281,35.046,84.717,33.597z" fill="#ffffff" transform="scale(0.605)"></path>
</g><g transform="translate(-100 456.8623875484857) rotate(0)">
  <animateTransform attributeName="transform" type="translate" keyTimes="0;1" values="-100 456.8623875484857;1702 456.8623875484857" dur="100s" repeatCount="indefinite" begin="-136.59743380357335s"></animateTransform>
  <path d="M84.717,33.597c0.791-2.503,1.186-5.138,1.186-7.773C85.903,11.594,74.308,0,60.079,0 c-9.881,0-18.445,5.534-22.793,13.702c-1.581-0.527-3.426-0.791-5.138-0.791c-9.486,0-17.128,7.642-17.128,17.128 c0,1.186,0.132,2.372,0.395,3.426C6.719,34.783,0,42.424,0,51.515C0,61.66,8.169,69.829,18.314,69.829h63.373 C91.831,69.829,100,61.66,100,51.515C99.868,42.556,93.281,35.046,84.717,33.597z" fill="#ffffff" transform="scale(0.605)"></path>
</g><g transform="translate(-100 385.3979219854169) rotate(0)">
  <animateTransform attributeName="transform" type="translate" keyTimes="0;1" values="-100 385.3979219854169;1702 385.3979219854169" dur="66.66666666666667s" repeatCount="indefinite" begin="-71.82959406285892s"></animateTransform>
  <path d="M84.717,33.597c0.791-2.503,1.186-5.138,1.186-7.773C85.903,11.594,74.308,0,60.079,0 c-9.881,0-18.445,5.534-22.793,13.702c-1.581-0.527-3.426-0.791-5.138-0.791c-9.486,0-17.128,7.642-17.128,17.128 c0,1.186,0.132,2.372,0.395,3.426C6.719,34.783,0,42.424,0,51.515C0,61.66,8.169,69.829,18.314,69.829h63.373 C91.831,69.829,100,61.66,100,51.515C99.868,42.556,93.281,35.046,84.717,33.597z" fill="#acd5ff" transform="scale(0.8025)"></path>
</g><g transform="translate(-100 566.4958883047562) rotate(0)">
  <animateTransform attributeName="transform" type="translate" keyTimes="0;1" values="-100 566.4958883047562;1702 566.4958883047562" dur="66.66666666666667s" repeatCount="indefinite" begin="-113.4016098738181s"></animateTransform>
  <path d="M84.717,33.597c0.791-2.503,1.186-5.138,1.186-7.773C85.903,11.594,74.308,0,60.079,0 c-9.881,0-18.445,5.534-22.793,13.702c-1.581-0.527-3.426-0.791-5.138-0.791c-9.486,0-17.128,7.642-17.128,17.128 c0,1.186,0.132,2.372,0.395,3.426C6.719,34.783,0,42.424,0,51.515C0,61.66,8.169,69.829,18.314,69.829h63.373 C91.831,69.829,100,61.66,100,51.515C99.868,42.556,93.281,35.046,84.717,33.597z" fill="#acd5ff" transform="scale(0.8025)"></path>
</g><g transform="translate(-100 658.5376612929596) rotate(0)">
  <animateTransform attributeName="transform" type="translate" keyTimes="0;1" values="-100 658.5376612929596;1702 658.5376612929596" dur="66.66666666666667s" repeatCount="indefinite" begin="-127.47107353020897s"></animateTransform>
  <path d="M84.717,33.597c0.791-2.503,1.186-5.138,1.186-7.773C85.903,11.594,74.308,0,60.079,0 c-9.881,0-18.445,5.534-22.793,13.702c-1.581-0.527-3.426-0.791-5.138-0.791c-9.486,0-17.128,7.642-17.128,17.128 c0,1.186,0.132,2.372,0.395,3.426C6.719,34.783,0,42.424,0,51.515C0,61.66,8.169,69.829,18.314,69.829h63.373 C91.831,69.829,100,61.66,100,51.515C99.868,42.556,93.281,35.046,84.717,33.597z" fill="#acd5ff" transform="scale(0.8025)"></path>
</g><g transform="translate(-100 178.18569841953263) rotate(0)">
  <animateTransform attributeName="transform" type="translate" keyTimes="0;1" values="-100 178.18569841953263;1702 178.18569841953263" dur="66.66666666666667s" repeatCount="indefinite" begin="-101.16969616750131s"></animateTransform>
  <path d="M84.717,33.597c0.791-2.503,1.186-5.138,1.186-7.773C85.903,11.594,74.308,0,60.079,0 c-9.881,0-18.445,5.534-22.793,13.702c-1.581-0.527-3.426-0.791-5.138-0.791c-9.486,0-17.128,7.642-17.128,17.128 c0,1.186,0.132,2.372,0.395,3.426C6.719,34.783,0,42.424,0,51.515C0,61.66,8.169,69.829,18.314,69.829h63.373 C91.831,69.829,100,61.66,100,51.515C99.868,42.556,93.281,35.046,84.717,33.597z" fill="#acd5ff" transform="scale(0.8025)"></path>
</g><g transform="translate(-100 538.9368287877679) rotate(0)">
  <animateTransform attributeName="transform" type="translate" keyTimes="0;1" values="-100 538.9368287877679;1702 538.9368287877679" dur="66.66666666666667s" repeatCount="indefinite" begin="-44.319216642021566s"></animateTransform>
  <path d="M84.717,33.597c0.791-2.503,1.186-5.138,1.186-7.773C85.903,11.594,74.308,0,60.079,0 c-9.881,0-18.445,5.534-22.793,13.702c-1.581-0.527-3.426-0.791-5.138-0.791c-9.486,0-17.128,7.642-17.128,17.128 c0,1.186,0.132,2.372,0.395,3.426C6.719,34.783,0,42.424,0,51.515C0,61.66,8.169,69.829,18.314,69.829h63.373 C91.831,69.829,100,61.66,100,51.515C99.868,42.556,93.281,35.046,84.717,33.597z" fill="#acd5ff" transform="scale(0.8025)"></path>
</g><g transform="translate(-100 454.1351152428601) rotate(0)">
  <animateTransform attributeName="transform" type="translate" keyTimes="0;1" values="-100 454.1351152428601;1702 454.1351152428601" dur="50s" repeatCount="indefinite" begin="-59.10610053466443s"></animateTransform>
  <path d="M84.717,33.597c0.791-2.503,1.186-5.138,1.186-7.773C85.903,11.594,74.308,0,60.079,0 c-9.881,0-18.445,5.534-22.793,13.702c-1.581-0.527-3.426-0.791-5.138-0.791c-9.486,0-17.128,7.642-17.128,17.128 c0,1.186,0.132,2.372,0.395,3.426C6.719,34.783,0,42.424,0,51.515C0,61.66,8.169,69.829,18.314,69.829h63.373 C91.831,69.829,100,61.66,100,51.515C99.868,42.556,93.281,35.046,84.717,33.597z" fill="#bddeff" transform="scale(1)"></path>
</g><g transform="translate(-100 630.1446762115742) rotate(0)">
  <animateTransform attributeName="transform" type="translate" keyTimes="0;1" values="-100 630.1446762115742;1702 630.1446762115742" dur="50s" repeatCount="indefinite" begin="-36.262144393636355s"></animateTransform>
  <path d="M84.717,33.597c0.791-2.503,1.186-5.138,1.186-7.773C85.903,11.594,74.308,0,60.079,0 c-9.881,0-18.445,5.534-22.793,13.702c-1.581-0.527-3.426-0.791-5.138-0.791c-9.486,0-17.128,7.642-17.128,17.128 c0,1.186,0.132,2.372,0.395,3.426C6.719,34.783,0,42.424,0,51.515C0,61.66,8.169,69.829,18.314,69.829h63.373 C91.831,69.829,100,61.66,100,51.515C99.868,42.556,93.281,35.046,84.717,33.597z" fill="#bddeff" transform="scale(1)"></path>
</g><g transform="translate(-100 387.5393474831687) rotate(0)">
  <animateTransform attributeName="transform" type="translate" keyTimes="0;1" values="-100 387.5393474831687;1702 387.5393474831687" dur="50s" repeatCount="indefinite" begin="-12.05991236521311s"></animateTransform>
  <path d="M84.717,33.597c0.791-2.503,1.186-5.138,1.186-7.773C85.903,11.594,74.308,0,60.079,0 c-9.881,0-18.445,5.534-22.793,13.702c-1.581-0.527-3.426-0.791-5.138-0.791c-9.486,0-17.128,7.642-17.128,17.128 c0,1.186,0.132,2.372,0.395,3.426C6.719,34.783,0,42.424,0,51.515C0,61.66,8.169,69.829,18.314,69.829h63.373 C91.831,69.829,100,61.66,100,51.515C99.868,42.556,93.281,35.046,84.717,33.597z" fill="#bddeff" transform="scale(1)"></path>
</g><g transform="translate(-100 55.30391132465031) rotate(0)">
  <animateTransform attributeName="transform" type="translate" keyTimes="0;1" values="-100 55.30391132465031;1702 55.30391132465031" dur="50s" repeatCount="indefinite" begin="-122.56471801076461s"></animateTransform>
  <path d="M84.717,33.597c0.791-2.503,1.186-5.138,1.186-7.773C85.903,11.594,74.308,0,60.079,0 c-9.881,0-18.445,5.534-22.793,13.702c-1.581-0.527-3.426-0.791-5.138-0.791c-9.486,0-17.128,7.642-17.128,17.128 c0,1.186,0.132,2.372,0.395,3.426C6.719,34.783,0,42.424,0,51.515C0,61.66,8.169,69.829,18.314,69.829h63.373 C91.831,69.829,100,61.66,100,51.515C99.868,42.556,93.281,35.046,84.717,33.597z" fill="#bddeff" transform="scale(1)"></path>
</g><g transform="translate(-100 602.710574514378) rotate(0)">
  <animateTransform attributeName="transform" type="translate" keyTimes="0;1" values="-100 602.710574514378;1702 602.710574514378" dur="50s" repeatCount="indefinite" begin="-45.54847487644844s"></animateTransform>
  <path d="M84.717,33.597c0.791-2.503,1.186-5.138,1.186-7.773C85.903,11.594,74.308,0,60.079,0 c-9.881,0-18.445,5.534-22.793,13.702c-1.581-0.527-3.426-0.791-5.138-0.791c-9.486,0-17.128,7.642-17.128,17.128 c0,1.186,0.132,2.372,0.395,3.426C6.719,34.783,0,42.424,0,51.515C0,61.66,8.169,69.829,18.314,69.829h63.373 C91.831,69.829,100,61.66,100,51.515C99.868,42.556,93.281,35.046,84.717,33.597z" fill="#bddeff" transform="scale(1)"></path>
</g><g transform="translate(-100 266.554702121963) rotate(0)">
  <animateTransform attributeName="transform" type="translate" keyTimes="0;1" values="-100 266.554702121963;1702 266.554702121963" dur="50s" repeatCount="indefinite" begin="-139.69082407209595s"></animateTransform>
  <path d="M84.717,33.597c0.791-2.503,1.186-5.138,1.186-7.773C85.903,11.594,74.308,0,60.079,0 c-9.881,0-18.445,5.534-22.793,13.702c-1.581-0.527-3.426-0.791-5.138-0.791c-9.486,0-17.128,7.642-17.128,17.128 c0,1.186,0.132,2.372,0.395,3.426C6.719,34.783,0,42.424,0,51.515C0,61.66,8.169,69.829,18.314,69.829h63.373 C91.831,69.829,100,61.66,100,51.515C99.868,42.556,93.281,35.046,84.717,33.597z" fill="#bddeff" transform="scale(1)"></path>
</g></g>
</svg>